<svg width="512" height="512" viewBox="0 0 200 200" xmlns="http://www.w3.org/2000/svg">
  <defs>
    <linearGradient id="amber" x1="0" y1="0" x2="1" y2="1">
      <stop offset="0%" stop-color="#FFD23D"/>
      <stop offset="40%" stop-color="#FFB000"/>
      <stop offset="100%" stop-color="#FF7A00"/>
    </linearGradient>
    <linearGradient id="amberV" x1="0" y1="0" x2="0" y2="1">
      <stop offset="0%" stop-color="#FFD23D"/>
      <stop offset="100%" stop-color="#FF7A00"/>
    </linearGradient>
    <linearGradient id="steel" x1="0" y1="0" x2="1" y2="1">
      <stop offset="0%" stop-color="#7CCBFF"/>
      <stop offset="100%" stop-color="#2E97F0"/>
    </linearGradient>
    <linearGradient id="steelDark" x1="0" y1="0" x2="0" y2="1">
      <stop offset="0%" stop-color="#3DA9FC"/>
      <stop offset="100%" stop-color="#1C6FB5"/>
    </linearGradient>
    <linearGradient id="amberDark" x1="0" y1="0" x2="0" y2="1">
      <stop offset="0%" stop-color="#E08800"/>
      <stop offset="100%" stop-color="#B85E00"/>
    </linearGradient>
    <radialGradient id="bg" cx="50%" cy="35%" r="80%">
      <stop offset="0%" stop-color="#16202E"/>
      <stop offset="100%" stop-color="#080B11"/>
    </radialGradient>
    <filter id="glow" x="-50%" y="-50%" width="200%" height="200%">
      <feGaussianBlur stdDeviation="7" result="b"/>
      <feMerge><feMergeNode in="b"/><feMergeNode in="SourceGraphic"/></feMerge>
    </filter>
    <filter id="glowBig" x="-60%" y="-60%" width="220%" height="220%">
      <feGaussianBlur stdDeviation="12" result="b"/>
      <feMerge><feMergeNode in="b"/><feMergeNode in="SourceGraphic"/></feMerge>
    </filter>
  </defs>
  <rect x="2" y="2" width="196" height="196" rx="44" fill="url(#bg)"/>
          <rect x="2.5" y="2.5" width="195" height="195" rx="43.5" fill="none" stroke="#26313f" stroke-width="1.5"/>
  <g filter="url(#glow)">
    <!-- crossbar -->
    <path d="M52 56 L150 56 L150 80 L52 80 Z" fill="url(#steel)"/>
    <!-- dynamic stem leaning forward -->
    <path d="M112 56 L150 56 L96 156 L58 156 Z" fill="url(#amber)"/>
    <path d="M112 56 L150 56 L131 96 L93 96 Z" fill="#FFE08A" opacity="0.35"/>
  </g></svg>